<?xml version="1.0" encoding="UTF-8"?>
<svg id="Layer_1" data-name="Layer 1" xmlns="http://www.w3.org/2000/svg" viewBox="0 0 96 96">
  <defs>
    <style>
      .cls-1 {
        fill: #0f172a;
      }
    </style>
  </defs>
  <path class="cls-1" d="M56.75,54.33l-3.64,2.52c-1.73-1.58-4.02-2.55-6.54-2.55-5.35,0-9.7,4.35-9.7,9.7s4.35,9.7,9.7,9.7c4.55,0,8.37-3.15,9.42-7.38l4.63-.1,20.83-13.34-24.69,1.45ZM48.22,69.09c-2.81.91-5.83-.62-6.74-3.44-.91-2.81.63-5.83,3.44-6.74,2.81-.91,5.83.62,6.74,3.44.91,2.81-.62,5.83-3.44,6.74Z"/>
  <path class="cls-1" d="M78.47,61.6l-3.54,2.27s0,.09,0,.14c0,15.67-12.7,28.37-28.37,28.37s-28.37-12.7-28.37-28.37,12.7-28.37,28.37-28.37c9.65,0,18.17,4.82,23.3,12.17l4.16-.24L46.56,0l-27.44,47.53-.59,1.02c-2.53,4.58-3.97,9.85-3.97,15.46,0,17.67,14.33,32,32,32s32-14.33,32-32c0-.81-.03-1.61-.09-2.4Z"/>
  <path class="cls-1" d="M62.76,48.22l-7.97.47-1.82,1.26c-.48-.22-.96-.41-1.46-.58-.06-.02-.13-.04-.2-.06-.08-.03-.17-.05-.25-.08-.02,0-.03-.01-.05-.01-.1-.03-.2-.06-.3-.09-.04-.01-.08-.02-.12-.03-.11-.03-.22-.06-.33-.09-.12-.03-.24-.06-.36-.08-.02,0-.05-.01-.07-.02-.12-.03-.24-.05-.37-.07-.14-.03-.27-.05-.41-.07-.11-.02-.22-.04-.32-.05-.05,0-.1-.02-.15-.02-.05,0-.1-.01-.15-.02-.08-.01-.17-.02-.26-.03-.12-.01-.24-.02-.36-.03-.14-.01-.27-.02-.41-.03-.09,0-.18-.01-.27-.01-.19,0-.37-.01-.56-.01-8.52,0-15.44,6.93-15.44,15.44,0,1.67.26,3.27.76,4.77l-6.83,2.22c-.72-2.2-1.1-4.55-1.1-6.99,0-12.48,10.15-22.63,22.63-22.63,6.34,0,12.09,2.62,16.2,6.84Z"/>
  <circle class="cls-1" cx="46.56" cy="64" r="2.51"/>
</svg>