<?xml version="1.0" encoding="UTF-8"?>
<svg id="Layer_4" data-name="Layer 4" xmlns="http://www.w3.org/2000/svg" viewBox="0 0 1000 1000">
  <defs>
    <style>
      .cls-1 {
        fill: #063854;
      }

      .cls-2 {
        fill: #219ad5;
      }

      .cls-3 {
        fill: #32b1e5;
      }
    </style>
  </defs>
  <g>
    <path class="cls-1" d="M169.31,549.12c8.69,0,16.01-6.01,18-14.1l8.85-.2,39.81-25.49-47.19,2.77-6.95,4.82c-3.3-3.02-7.69-4.87-12.51-4.87-10.22,0-18.53,8.31-18.53,18.53s8.31,18.53,18.53,18.53ZM166.15,520.85c5.37-1.75,11.15,1.19,12.89,6.57,1.75,5.38-1.19,11.15-6.57,12.89-5.37,1.75-11.15-1.19-12.89-6.57-1.75-5.38,1.2-11.15,6.57-12.89Z"/>
    <path class="cls-2" d="M223.54,530.32c0,.09,0,.17,0,.26,0,29.95-24.28,54.23-54.23,54.23s-54.23-24.28-54.23-54.23,24.28-54.23,54.23-54.23c18.44,0,34.73,9.2,44.53,23.27l7.95-.47-52.48-90.9-52.45,90.84-1.12,1.95c-4.84,8.76-7.59,18.83-7.59,29.54,0,33.78,27.38,61.16,61.16,61.16s61.16-27.38,61.16-61.16c0-1.54-.06-3.07-.17-4.59l-6.76,4.33Z"/>
    <path class="cls-3" d="M169.31,501.07c.36,0,.72,0,1.08.02.17,0,.35.01.52.02.26.01.52.03.78.05.23.02.46.04.68.06.16.02.33.04.49.06.1,0,.19.02.28.03.1.01.19.02.29.04.21.02.41.06.62.09.26.04.52.09.78.14.24.04.47.09.7.14.05,0,.1.02.14.03.23.05.46.1.69.16.21.05.43.1.64.16.08.02.15.04.23.06.19.05.39.11.58.17.03,0,.06.01.09.02.16.05.32.1.48.15.13.04.25.08.38.12.96.32,1.89.69,2.8,1.11l3.48-2.42,15.23-.9c-7.86-8.06-18.84-13.08-30.96-13.08-23.85,0-43.25,19.4-43.25,43.25,0,4.66.74,9.15,2.11,13.36l13.06-4.24c-.94-2.87-1.44-5.94-1.44-9.12,0-16.28,13.24-29.52,29.52-29.52Z"/>
    <circle class="cls-3" cx="169.31" cy="530.58" r="4.81"/>
  </g>
  <g>
    <g>
      <path class="cls-3" d="M294.51,555.52v17.64h-4.3v-10.58l-3.95,10.58h-3.47l-3.97-10.61v10.61h-4.3v-17.64h5.08l4.95,12.21,4.9-12.21h5.05Z"/>
      <path class="cls-3" d="M316.21,572.18c-1.38-.77-2.48-1.85-3.29-3.23-.81-1.38-1.22-2.94-1.22-4.66s.41-3.28,1.22-4.65,1.91-2.45,3.29-3.22c1.38-.77,2.9-1.16,4.56-1.16s3.18.39,4.56,1.16c1.38.77,2.47,1.84,3.27,3.22.8,1.37,1.19,2.92,1.19,4.65s-.4,3.28-1.21,4.66c-.8,1.38-1.89,2.46-3.27,3.23-1.37.77-2.89,1.16-4.55,1.16s-3.18-.39-4.56-1.16ZM324.15,568.01c.85-.94,1.27-2.18,1.27-3.72s-.42-2.8-1.27-3.73c-.85-.93-1.97-1.39-3.38-1.39s-2.56.46-3.41,1.38-1.27,2.17-1.27,3.75.42,2.8,1.27,3.73c.85.93,1.98,1.4,3.41,1.4s2.53-.47,3.38-1.41Z"/>
      <path class="cls-3" d="M358.5,556.62c1.39.74,2.47,1.77,3.23,3.1s1.14,2.87,1.14,4.61-.38,3.26-1.14,4.6c-.76,1.34-1.84,2.38-3.24,3.12s-3.02,1.11-4.86,1.11h-6.61v-17.64h6.61c1.86,0,3.49.37,4.88,1.11ZM357.14,568.11c.9-.89,1.36-2.14,1.36-3.77s-.45-2.89-1.36-3.8-2.17-1.36-3.8-1.36h-2.04v10.25h2.04c1.63,0,2.89-.44,3.8-1.33Z"/>
      <path class="cls-3" d="M384.41,558.96v3.57h5.76v3.32h-5.76v3.87h6.51v3.44h-10.81v-17.64h10.81v3.44h-6.51Z"/>
      <path class="cls-3" d="M412.83,569.84h5.63v3.32h-9.93v-17.64h4.3v14.33Z"/>
      <path class="cls-3" d="M497.41,555.52v17.64h-4.3v-10.58l-3.95,10.58h-3.47l-3.97-10.61v10.61h-4.3v-17.64h5.08l4.95,12.21,4.9-12.21h5.05Z"/>
      <path class="cls-3" d="M519.63,558.96v3.57h5.76v3.32h-5.76v3.87h6.51v3.44h-10.81v-17.64h10.81v3.44h-6.51Z"/>
      <path class="cls-3" d="M554.74,570.05h-6.58l-1.06,3.12h-4.5l6.38-17.64h4.98l6.38,17.64h-4.55l-1.06-3.12ZM553.63,566.73l-2.19-6.46-2.16,6.46h4.35Z"/>
      <path class="cls-3" d="M580.02,572.71c-1.02-.42-1.84-1.04-2.45-1.86-.61-.82-.93-1.81-.97-2.97h4.57c.07.65.29,1.15.68,1.5.39.34.89.52,1.51.52s1.14-.15,1.51-.44c.37-.29.55-.7.55-1.22,0-.44-.15-.8-.44-1.08-.29-.28-.65-.52-1.08-.7-.43-.18-1.04-.39-1.82-.63-1.14-.35-2.07-.7-2.79-1.06-.72-.35-1.34-.87-1.86-1.56s-.78-1.58-.78-2.69c0-1.64.59-2.93,1.78-3.86,1.19-.93,2.74-1.39,4.65-1.39s3.51.46,4.7,1.39c1.19.93,1.83,2.22,1.91,3.88h-4.65c-.03-.57-.24-1.02-.63-1.34-.39-.33-.88-.49-1.48-.49-.52,0-.94.14-1.26.41s-.48.67-.48,1.19c0,.57.27,1.01.8,1.33.54.32,1.37.66,2.51,1.03,1.14.39,2.07.75,2.78,1.11.71.35,1.33.86,1.85,1.53.52.67.78,1.53.78,2.59s-.26,1.92-.77,2.74-1.25,1.47-2.22,1.96-2.12.73-3.44.73-2.45-.21-3.47-.63Z"/>
      <path class="cls-3" d="M611.61,555.52v10.56c0,1.06.26,1.87.78,2.44.52.57,1.28.85,2.29.85s1.78-.28,2.31-.85c.54-.57.8-1.38.8-2.44v-10.56h4.3v10.53c0,1.58-.34,2.91-1.01,4s-1.57,1.91-2.7,2.46-2.39.83-3.78.83-2.64-.27-3.73-.82c-1.1-.54-1.96-1.37-2.6-2.46-.64-1.1-.96-2.43-.96-4.01v-10.53h4.3Z"/>
      <path class="cls-3" d="M648.94,573.16l-3.67-6.66h-1.03v6.66h-4.3v-17.64h7.21c1.39,0,2.58.24,3.56.73s1.71,1.15,2.2,2,.73,1.79.73,2.83c0,1.17-.33,2.22-.99,3.14-.66.92-1.64,1.58-2.93,1.96l4.07,6.99h-4.85ZM644.24,563.46h2.66c.79,0,1.38-.19,1.77-.58.39-.39.59-.93.59-1.63s-.2-1.2-.59-1.58c-.39-.39-.99-.58-1.77-.58h-2.66v4.37Z"/>
      <path class="cls-3" d="M675.45,558.96v3.57h5.76v3.32h-5.76v3.87h6.51v3.44h-10.81v-17.64h10.81v3.44h-6.51Z"/>
      <path class="cls-3" d="M760.91,555.52v17.64h-4.3v-10.58l-3.95,10.58h-3.47l-3.97-10.61v10.61h-4.3v-17.64h5.08l4.95,12.21,4.9-12.21h5.05Z"/>
      <path class="cls-3" d="M789.93,570.05h-6.58l-1.06,3.12h-4.5l6.38-17.64h4.98l6.38,17.64h-4.55l-1.06-3.12ZM788.82,566.73l-2.19-6.46-2.16,6.46h4.35Z"/>
      <path class="cls-3" d="M825.6,555.52v3.44h-4.68v14.2h-4.3v-14.2h-4.67v-3.44h13.65Z"/>
      <path class="cls-3" d="M842.99,559.65c.75-1.37,1.81-2.43,3.15-3.19,1.35-.76,2.88-1.14,4.59-1.14,2.09,0,3.89.55,5.38,1.66,1.49,1.11,2.49,2.61,2.99,4.52h-4.72c-.35-.74-.85-1.3-1.5-1.68-.65-.39-1.38-.58-2.2-.58-1.32,0-2.4.46-3.22,1.38-.82.92-1.23,2.15-1.23,3.69s.41,2.77,1.23,3.7c.82.92,1.89,1.38,3.22,1.38.82,0,1.55-.19,2.2-.58.64-.39,1.14-.95,1.5-1.68h4.72c-.5,1.91-1.5,3.41-2.99,4.51-1.49,1.1-3.28,1.65-5.38,1.65-1.71,0-3.24-.38-4.59-1.14-1.35-.76-2.4-1.82-3.15-3.18-.75-1.36-1.13-2.91-1.13-4.65s.38-3.3,1.13-4.66Z"/>
      <path class="cls-3" d="M891.85,555.52v17.64h-4.3v-7.26h-6.69v7.26h-4.3v-17.64h4.3v6.91h6.69v-6.91h4.3Z"/>
    </g>
    <circle class="cls-1" cx="447.95" cy="564.41" r="4.54"/>
    <circle class="cls-1" cx="711.44" cy="564.41" r="4.54"/>
  </g>
  <g>
    <path class="cls-1" d="M327.53,498.59c-1.95,3.52-4.95,6.36-8.99,8.52-4.04,2.16-9.06,3.24-15.06,3.24h-11.08v26.35h-17.88v-73.39h28.96c5.85,0,10.8,1.01,14.85,3.03,4.04,2.02,7.07,4.81,9.1,8.36,2.02,3.55,3.03,7.63,3.03,12.23,0,4.25-.98,8.14-2.93,11.66ZM309.76,493.73c1.67-1.6,2.51-3.87,2.51-6.8s-.84-5.19-2.51-6.8c-1.67-1.6-4.22-2.41-7.63-2.41h-9.72v18.4h9.72c3.41,0,5.96-.8,7.63-2.4Z"/>
    <path class="cls-1" d="M365.09,481.13c3.1-1.83,6.55-2.74,10.34-2.74v18.71h-4.86c-4.41,0-7.72.95-9.92,2.84-2.21,1.9-3.31,5.22-3.31,9.98v26.77h-17.68v-57.68h17.68v9.61c2.07-3.17,4.65-5.67,7.75-7.49Z"/>
    <path class="cls-1" d="M437.97,512.09h-40c.27,3.58,1.43,6.32,3.46,8.22,2.03,1.9,4.53,2.84,7.49,2.84,4.41,0,7.48-1.86,9.2-5.58h18.81c-.97,3.79-2.71,7.2-5.22,10.23-2.52,3.03-5.67,5.41-9.46,7.13-3.79,1.72-8.03,2.58-12.71,2.58-5.65,0-10.68-1.2-15.09-3.62-4.41-2.41-7.86-5.86-10.34-10.34-2.48-4.48-3.72-9.72-3.72-15.71s1.22-11.23,3.67-15.71c2.45-4.48,5.87-7.92,10.29-10.34,4.41-2.41,9.47-3.62,15.2-3.62s10.54,1.17,14.89,3.51c4.34,2.34,7.74,5.69,10.18,10.03,2.45,4.34,3.67,9.41,3.67,15.2,0,1.65-.1,3.38-.31,5.17ZM420.19,502.27c0-3.03-1.03-5.44-3.1-7.24-2.07-1.79-4.65-2.69-7.75-2.69s-5.46.86-7.49,2.58c-2.03,1.72-3.29,4.17-3.77,7.34h22.12Z"/>
    <path class="cls-1" d="M457.61,534.94c-3.93-1.72-7.03-4.08-9.3-7.08-2.27-3-3.55-6.36-3.82-10.08h17.47c.21,2,1.14,3.62,2.79,4.86,1.65,1.24,3.69,1.86,6.1,1.86,2.21,0,3.91-.43,5.12-1.29,1.21-.86,1.81-1.98,1.81-3.36,0-1.65-.86-2.88-2.58-3.67-1.72-.79-4.51-1.67-8.37-2.64-4.13-.96-7.58-1.98-10.34-3.05-2.76-1.07-5.13-2.76-7.13-5.07-2-2.31-3-5.43-3-9.36,0-3.31.91-6.32,2.74-9.04,1.82-2.72,4.51-4.88,8.06-6.46,3.55-1.58,7.77-2.38,12.66-2.38,7.24,0,12.94,1.79,17.11,5.38,4.17,3.58,6.56,8.34,7.18,14.27h-16.33c-.28-2-1.16-3.58-2.64-4.76-1.48-1.17-3.43-1.76-5.84-1.76-2.07,0-3.65.4-4.76,1.19-1.1.79-1.65,1.88-1.65,3.26,0,1.65.88,2.89,2.64,3.72,1.76.83,4.5,1.65,8.22,2.48,4.27,1.1,7.75,2.19,10.44,3.26,2.69,1.07,5.05,2.79,7.08,5.17,2.03,2.38,3.08,5.57,3.15,9.56,0,3.38-.95,6.39-2.84,9.05-1.9,2.65-4.62,4.74-8.17,6.25-3.55,1.52-7.67,2.27-12.35,2.27-5.03,0-9.51-.86-13.44-2.58Z"/>
    <path class="cls-1" d="M515.29,534.94c-3.93-1.72-7.03-4.08-9.3-7.08-2.27-3-3.55-6.36-3.82-10.08h17.47c.21,2,1.14,3.62,2.79,4.86,1.65,1.24,3.69,1.86,6.1,1.86,2.21,0,3.91-.43,5.12-1.29,1.21-.86,1.81-1.98,1.81-3.36,0-1.65-.86-2.88-2.58-3.67-1.72-.79-4.51-1.67-8.37-2.64-4.13-.96-7.58-1.98-10.34-3.05-2.76-1.07-5.13-2.76-7.13-5.07-2-2.31-3-5.43-3-9.36,0-3.31.91-6.32,2.74-9.04,1.82-2.72,4.51-4.88,8.06-6.46,3.55-1.58,7.77-2.38,12.66-2.38,7.24,0,12.94,1.79,17.11,5.38,4.17,3.58,6.56,8.34,7.18,14.27h-16.33c-.28-2-1.16-3.58-2.64-4.76-1.48-1.17-3.43-1.76-5.84-1.76-2.07,0-3.65.4-4.76,1.19-1.1.79-1.65,1.88-1.65,3.26,0,1.65.88,2.89,2.64,3.72,1.76.83,4.5,1.65,8.22,2.48,4.27,1.1,7.75,2.19,10.44,3.26,2.69,1.07,5.05,2.79,7.08,5.17,2.03,2.38,3.08,5.57,3.15,9.56,0,3.38-.95,6.39-2.84,9.05-1.9,2.65-4.62,4.74-8.17,6.25-3.55,1.52-7.67,2.27-12.35,2.27-5.03,0-9.51-.86-13.44-2.58Z"/>
    <path class="cls-1" d="M619.9,479.02v57.68h-17.68v-7.86c-1.79,2.55-4.22,4.6-7.29,6.15-3.07,1.55-6.46,2.33-10.18,2.33-4.41,0-8.31-.98-11.68-2.95-3.38-1.96-6-4.81-7.86-8.53-1.86-3.72-2.79-8.1-2.79-13.13v-33.7h17.57v31.32c0,3.86,1,6.86,3,8.99,2,2.14,4.69,3.2,8.06,3.2s6.17-1.07,8.17-3.2c2-2.14,3-5.13,3-8.99v-31.32h17.68Z"/>
    <path class="cls-1" d="M658.04,481.13c3.1-1.83,6.55-2.74,10.34-2.74v18.71h-4.86c-4.41,0-7.72.95-9.92,2.84-2.21,1.9-3.31,5.22-3.31,9.98v26.77h-17.68v-57.68h17.68v9.61c2.07-3.17,4.65-5.67,7.75-7.49Z"/>
    <path class="cls-1" d="M730.92,512.09h-40.01c.27,3.58,1.43,6.32,3.46,8.22,2.03,1.9,4.53,2.84,7.49,2.84,4.41,0,7.48-1.86,9.2-5.58h18.81c-.97,3.79-2.71,7.2-5.22,10.23-2.52,3.03-5.67,5.41-9.46,7.13-3.79,1.72-8.03,2.58-12.71,2.58-5.65,0-10.68-1.2-15.09-3.62-4.41-2.41-7.86-5.86-10.34-10.34-2.48-4.48-3.72-9.72-3.72-15.71s1.22-11.23,3.67-15.71c2.45-4.48,5.88-7.92,10.29-10.34,4.41-2.41,9.47-3.62,15.2-3.62s10.54,1.17,14.89,3.51c4.34,2.34,7.74,5.69,10.18,10.03,2.44,4.34,3.67,9.41,3.67,15.2,0,1.65-.1,3.38-.31,5.17ZM713.14,502.27c0-3.03-1.03-5.44-3.1-7.24-2.07-1.79-4.65-2.69-7.75-2.69s-5.46.86-7.49,2.58c-2.03,1.72-3.29,4.17-3.77,7.34h22.12Z"/>
    <path class="cls-3" d="M741.14,481.21c3.3-5.62,7.77-10.01,13.43-13.17,5.66-3.16,11.85-4.74,18.58-4.74,7.7,0,14.56,1.89,20.56,5.67,6,3.78,10.36,9.15,13.07,16.09h-14.26c-1.87-3.82-4.48-6.66-7.81-8.54s-7.18-2.81-11.56-2.81c-4.79,0-9.06,1.08-12.81,3.23-3.75,2.15-6.68,5.24-8.8,9.27-2.12,4.03-3.18,8.71-3.18,14.06s1.06,10.03,3.18,14.06c2.12,4.03,5.05,7.13,8.8,9.32,3.75,2.19,8.02,3.28,12.81,3.28,4.37,0,8.23-.94,11.56-2.81,3.33-1.87,5.93-4.72,7.81-8.54h14.26c-2.71,6.94-7.06,12.29-13.07,16.03-6,3.75-12.86,5.62-20.56,5.62-6.8,0-13.01-1.58-18.64-4.74-5.62-3.16-10.08-7.55-13.38-13.17-3.3-5.62-4.95-11.97-4.95-19.05s1.65-13.43,4.95-19.05Z"/>
    <path class="cls-3" d="M815.16,494.58c2.28-4.23,5.38-7.51,9.31-9.86,3.93-2.34,8.27-3.52,13.03-3.52,4.29,0,8.04.84,11.25,2.53,3.2,1.68,5.76,3.78,7.68,6.29v-7.93h11.4v54.6h-11.4v-8.13c-1.92,2.58-4.53,4.72-7.83,6.44-3.3,1.72-7.07,2.58-11.3,2.58-4.69,0-8.98-1.21-12.88-3.62-3.9-2.41-6.99-5.78-9.26-10.11-2.28-4.33-3.42-9.23-3.42-14.72s1.14-10.34,3.42-14.57ZM854.11,499.54c-1.55-2.77-3.58-4.89-6.09-6.34-2.51-1.45-5.22-2.18-8.13-2.18s-5.62.71-8.13,2.13c-2.51,1.42-4.54,3.5-6.09,6.24-1.55,2.74-2.33,6-2.33,9.76s.78,7.07,2.33,9.91c1.55,2.84,3.6,5,6.14,6.49,2.54,1.49,5.24,2.23,8.08,2.23s5.61-.73,8.13-2.18c2.51-1.45,4.54-3.58,6.09-6.39,1.55-2.81,2.33-6.09,2.33-9.86s-.78-7.04-2.33-9.81Z"/>
    <path class="cls-3" d="M891.85,463.3v73.39h-11.31v-73.39h11.31Z"/>
  </g>
</svg>