<svg xmlns="http://www.w3.org/2000/svg" xmlns:xlink="http://www.w3.org/1999/xlink" width="1000" zoomAndPan="magnify" viewBox="0 0 750 749.999995" height="1000" preserveAspectRatio="xMidYMid meet" version="1.0"><path fill="#063854" d="M 126.984375 411.839844 C 133.5 411.839844 138.988281 407.332031 140.484375 401.265625 L 147.121094 401.113281 L 176.976562 381.996094 L 141.585938 384.074219 L 136.371094 387.691406 C 133.898438 385.425781 130.605469 384.039062 126.988281 384.039062 C 119.324219 384.039062 113.09375 390.269531 113.09375 397.933594 C 113.09375 405.601562 119.324219 411.832031 126.988281 411.832031 Z M 124.613281 390.636719 C 128.640625 389.324219 132.976562 391.53125 134.28125 395.566406 C 135.59375 399.601562 133.386719 403.925781 129.351562 405.234375 C 125.324219 406.546875 120.988281 404.339844 119.683594 400.304688 C 118.371094 396.269531 120.585938 391.941406 124.613281 390.636719 Z M 124.613281 390.636719 " fill-opacity="1" fill-rule="nonzero"/><path fill="#219ad5" d="M 167.65625 397.738281 C 167.65625 397.808594 167.65625 397.867188 167.65625 397.933594 C 167.65625 420.398438 149.445312 438.609375 126.984375 438.609375 C 104.519531 438.609375 86.308594 420.398438 86.308594 397.933594 C 86.308594 375.472656 104.519531 357.261719 126.984375 357.261719 C 140.8125 357.261719 153.03125 364.164062 160.378906 374.714844 L 166.34375 374.363281 L 126.984375 306.1875 L 87.644531 374.316406 L 86.804688 375.78125 C 83.175781 382.351562 81.113281 389.902344 81.113281 397.933594 C 81.113281 423.269531 101.648438 443.804688 126.984375 443.804688 C 152.316406 443.804688 172.851562 423.269531 172.851562 397.933594 C 172.851562 396.78125 172.808594 395.632812 172.726562 394.492188 Z M 167.65625 397.738281 " fill-opacity="1" fill-rule="nonzero"/><path fill="#32b1e5" d="M 126.984375 375.800781 C 127.253906 375.800781 127.523438 375.800781 127.792969 375.816406 C 127.921875 375.816406 128.054688 375.824219 128.183594 375.832031 C 128.378906 375.839844 128.574219 375.855469 128.765625 375.871094 C 128.941406 375.886719 129.113281 375.898438 129.277344 375.914062 C 129.398438 375.929688 129.523438 375.945312 129.644531 375.960938 C 129.71875 375.960938 129.789062 375.976562 129.855469 375.984375 C 129.929688 375.988281 129.996094 375.996094 130.074219 376.011719 C 130.230469 376.027344 130.378906 376.058594 130.539062 376.078125 C 130.734375 376.109375 130.925781 376.148438 131.121094 376.183594 C 131.300781 376.214844 131.476562 376.253906 131.648438 376.289062 C 131.683594 376.289062 131.722656 376.304688 131.753906 376.3125 C 131.925781 376.351562 132.097656 376.386719 132.269531 376.433594 C 132.425781 376.46875 132.59375 376.507812 132.75 376.550781 C 132.808594 376.566406 132.863281 376.582031 132.921875 376.597656 C 133.066406 376.636719 133.214844 376.679688 133.359375 376.726562 C 133.378906 376.726562 133.402344 376.734375 133.425781 376.738281 C 133.546875 376.777344 133.664062 376.816406 133.785156 376.851562 C 133.882812 376.882812 133.972656 376.914062 134.070312 376.941406 C 134.789062 377.183594 135.488281 377.460938 136.171875 377.773438 L 138.78125 375.960938 L 150.203125 375.285156 C 144.308594 369.238281 136.074219 365.476562 126.984375 365.476562 C 109.09375 365.476562 94.546875 380.023438 94.546875 397.914062 C 94.546875 401.40625 95.101562 404.773438 96.128906 407.933594 L 105.921875 404.753906 C 105.21875 402.601562 104.84375 400.296875 104.84375 397.914062 C 104.84375 385.703125 114.773438 375.773438 126.984375 375.773438 Z M 126.984375 375.800781 " fill-opacity="1" fill-rule="nonzero"/><path fill="#32b1e5" d="M 130.589844 397.933594 C 130.589844 398.414062 130.5 398.875 130.316406 399.316406 C 130.132812 399.757812 129.871094 400.148438 129.535156 400.484375 C 129.195312 400.824219 128.804688 401.085938 128.363281 401.269531 C 127.921875 401.449219 127.460938 401.542969 126.984375 401.542969 C 126.503906 401.542969 126.042969 401.449219 125.601562 401.269531 C 125.160156 401.085938 124.769531 400.824219 124.429688 400.484375 C 124.09375 400.148438 123.832031 399.757812 123.648438 399.316406 C 123.464844 398.875 123.375 398.414062 123.375 397.933594 C 123.375 397.457031 123.464844 396.996094 123.648438 396.554688 C 123.832031 396.113281 124.09375 395.722656 124.429688 395.382812 C 124.769531 395.046875 125.160156 394.785156 125.601562 394.601562 C 126.042969 394.417969 126.503906 394.328125 126.984375 394.328125 C 127.460938 394.328125 127.921875 394.417969 128.363281 394.601562 C 128.804688 394.785156 129.195312 395.046875 129.535156 395.382812 C 129.871094 395.722656 130.132812 396.113281 130.316406 396.554688 C 130.5 396.996094 130.589844 397.457031 130.589844 397.933594 Z M 130.589844 397.933594 " fill-opacity="1" fill-rule="nonzero"/><path fill="#32b1e5" d="M 220.882812 416.640625 L 220.882812 429.871094 L 217.65625 429.871094 L 217.65625 421.933594 L 214.695312 429.871094 L 212.09375 429.871094 L 209.113281 421.914062 L 209.113281 429.871094 L 205.890625 429.871094 L 205.890625 416.640625 L 209.699219 416.640625 L 213.414062 425.796875 L 217.085938 416.640625 Z M 220.882812 416.640625 " fill-opacity="1" fill-rule="nonzero"/><path fill="#32b1e5" d="M 237.15625 429.136719 C 236.121094 428.558594 235.296875 427.746094 234.691406 426.710938 C 234.082031 425.675781 233.773438 424.507812 233.773438 423.21875 C 233.773438 421.925781 234.082031 420.757812 234.691406 419.730469 C 235.296875 418.703125 236.121094 417.890625 237.15625 417.316406 C 238.191406 416.738281 239.332031 416.445312 240.578125 416.445312 C 241.824219 416.445312 242.960938 416.738281 243.996094 417.316406 C 245.03125 417.890625 245.851562 418.695312 246.449219 419.730469 C 247.050781 420.757812 247.34375 421.921875 247.34375 423.21875 C 247.34375 424.515625 247.042969 425.675781 246.433594 426.710938 C 245.835938 427.746094 245.015625 428.558594 243.984375 429.136719 C 242.953125 429.710938 241.816406 430.003906 240.570312 430.003906 C 239.324219 430.003906 238.183594 429.710938 237.148438 429.136719 Z M 243.113281 426.007812 C 243.75 425.300781 244.066406 424.371094 244.066406 423.21875 C 244.066406 422.0625 243.75 421.117188 243.113281 420.421875 C 242.476562 419.722656 241.636719 419.378906 240.578125 419.378906 C 239.519531 419.378906 238.65625 419.722656 238.019531 420.414062 C 237.382812 421.101562 237.066406 422.039062 237.066406 423.226562 C 237.066406 424.410156 237.382812 425.324219 238.019531 426.023438 C 238.65625 426.71875 239.503906 427.074219 240.578125 427.074219 C 241.648438 427.074219 242.476562 426.71875 243.113281 426.015625 Z M 243.113281 426.007812 " fill-opacity="1" fill-rule="nonzero"/><path fill="#32b1e5" d="M 268.875 417.464844 C 269.917969 418.019531 270.726562 418.792969 271.296875 419.789062 C 271.867188 420.789062 272.152344 421.941406 272.152344 423.246094 C 272.152344 424.550781 271.867188 425.691406 271.296875 426.699219 C 270.726562 427.703125 269.917969 428.484375 268.867188 429.039062 C 267.816406 429.59375 266.601562 429.871094 265.222656 429.871094 L 260.265625 429.871094 L 260.265625 416.640625 L 265.222656 416.640625 C 266.617188 416.640625 267.839844 416.917969 268.882812 417.472656 Z M 267.855469 426.082031 C 268.53125 425.414062 268.875 424.476562 268.875 423.253906 C 268.875 422.03125 268.539062 421.085938 267.855469 420.40625 C 267.171875 419.722656 266.226562 419.386719 265.003906 419.386719 L 263.476562 419.386719 L 263.476562 427.074219 L 265.003906 427.074219 C 266.226562 427.074219 267.171875 426.742188 267.855469 426.074219 Z M 267.855469 426.082031 " fill-opacity="1" fill-rule="nonzero"/><path fill="#32b1e5" d="M 288.308594 419.21875 L 288.308594 421.898438 L 292.628906 421.898438 L 292.628906 424.386719 L 288.308594 424.386719 L 288.308594 427.289062 L 293.191406 427.289062 L 293.191406 429.871094 L 285.082031 429.871094 L 285.082031 416.640625 L 293.191406 416.640625 L 293.191406 419.21875 Z M 288.308594 419.21875 " fill-opacity="1" fill-rule="nonzero"/><path fill="#32b1e5" d="M 309.621094 427.378906 L 313.84375 427.378906 L 313.84375 429.871094 L 306.398438 429.871094 L 306.398438 416.640625 L 309.621094 416.640625 L 309.621094 427.386719 Z M 309.621094 427.378906 " fill-opacity="1" fill-rule="nonzero"/><path fill="#32b1e5" d="M 373.058594 416.640625 L 373.058594 429.871094 L 369.832031 429.871094 L 369.832031 421.933594 L 366.871094 429.871094 L 364.265625 429.871094 L 361.289062 421.914062 L 361.289062 429.871094 L 358.066406 429.871094 L 358.066406 416.640625 L 361.875 416.640625 L 365.585938 425.796875 L 369.261719 416.640625 Z M 373.058594 416.640625 " fill-opacity="1" fill-rule="nonzero"/><path fill="#32b1e5" d="M 389.722656 419.21875 L 389.722656 421.898438 L 394.042969 421.898438 L 394.042969 424.386719 L 389.722656 424.386719 L 389.722656 427.289062 L 394.605469 427.289062 L 394.605469 429.871094 L 386.496094 429.871094 L 386.496094 416.640625 L 394.605469 416.640625 L 394.605469 419.21875 Z M 389.722656 419.21875 " fill-opacity="1" fill-rule="nonzero"/><path fill="#32b1e5" d="M 416.054688 427.539062 L 411.121094 427.539062 L 410.324219 429.878906 L 406.949219 429.878906 L 411.734375 416.648438 L 415.46875 416.648438 L 420.253906 429.878906 L 416.84375 429.878906 L 416.046875 427.539062 Z M 415.222656 425.046875 L 413.578125 420.203125 L 411.960938 425.046875 Z M 415.222656 425.046875 " fill-opacity="1" fill-rule="nonzero"/><path fill="#32b1e5" d="M 435.015625 429.53125 C 434.25 429.21875 433.636719 428.753906 433.175781 428.136719 C 432.71875 427.523438 432.480469 426.78125 432.449219 425.910156 L 435.878906 425.910156 C 435.929688 426.398438 436.09375 426.773438 436.386719 427.035156 C 436.679688 427.289062 437.054688 427.425781 437.519531 427.425781 C 437.984375 427.425781 438.375 427.3125 438.652344 427.09375 C 438.929688 426.878906 439.066406 426.570312 439.066406 426.179688 C 439.066406 425.851562 438.953125 425.582031 438.734375 425.371094 C 438.515625 425.160156 438.246094 424.980469 437.925781 424.84375 C 437.601562 424.710938 437.144531 424.550781 436.558594 424.371094 C 435.703125 424.109375 435.007812 423.847656 434.46875 423.578125 C 433.925781 423.316406 433.460938 422.925781 433.074219 422.40625 C 432.683594 421.890625 432.488281 421.222656 432.488281 420.390625 C 432.488281 419.160156 432.929688 418.191406 433.824219 417.496094 C 434.714844 416.796875 435.878906 416.453125 437.308594 416.453125 C 438.742188 416.453125 439.941406 416.796875 440.835938 417.496094 C 441.726562 418.191406 442.207031 419.160156 442.265625 420.40625 L 438.78125 420.40625 C 438.757812 419.976562 438.601562 419.640625 438.308594 419.398438 C 438.015625 419.152344 437.648438 419.03125 437.199219 419.03125 C 436.808594 419.03125 436.492188 419.136719 436.253906 419.339844 C 436.011719 419.542969 435.890625 419.84375 435.890625 420.234375 C 435.890625 420.660156 436.09375 420.988281 436.492188 421.230469 C 436.898438 421.46875 437.519531 421.726562 438.375 422.003906 C 439.230469 422.296875 439.925781 422.566406 440.460938 422.835938 C 440.992188 423.097656 441.457031 423.480469 441.847656 423.984375 C 442.238281 424.484375 442.433594 425.128906 442.433594 425.925781 C 442.433594 426.71875 442.238281 427.363281 441.855469 427.980469 C 441.472656 428.59375 440.917969 429.082031 440.191406 429.449219 C 439.460938 429.816406 438.601562 429.996094 437.609375 429.996094 C 436.621094 429.996094 435.773438 429.839844 435.007812 429.523438 Z M 435.015625 429.53125 " fill-opacity="1" fill-rule="nonzero"/><path fill="#32b1e5" d="M 458.707031 416.640625 L 458.707031 424.558594 C 458.707031 425.355469 458.902344 425.960938 459.292969 426.390625 C 459.683594 426.816406 460.253906 427.027344 461.011719 427.027344 C 461.765625 427.027344 462.34375 426.816406 462.742188 426.390625 C 463.148438 425.960938 463.34375 425.355469 463.34375 424.558594 L 463.34375 416.640625 L 466.566406 416.640625 L 466.566406 424.539062 C 466.566406 425.722656 466.3125 426.71875 465.808594 427.539062 C 465.308594 428.355469 464.632812 428.96875 463.785156 429.382812 C 462.9375 429.796875 461.992188 430.003906 460.949219 430.003906 C 459.90625 430.003906 458.96875 429.800781 458.152344 429.390625 C 457.328125 428.984375 456.683594 428.363281 456.203125 427.546875 C 455.722656 426.71875 455.484375 425.722656 455.484375 424.539062 L 455.484375 416.640625 Z M 458.707031 416.640625 " fill-opacity="1" fill-rule="nonzero"/><path fill="#32b1e5" d="M 486.703125 429.871094 L 483.953125 424.875 L 483.179688 424.875 L 483.179688 429.871094 L 479.953125 429.871094 L 479.953125 416.640625 L 485.363281 416.640625 C 486.40625 416.640625 487.296875 416.820312 488.03125 417.1875 C 488.765625 417.554688 489.316406 418.050781 489.683594 418.6875 C 490.050781 419.324219 490.230469 420.03125 490.230469 420.808594 C 490.230469 421.6875 489.984375 422.476562 489.488281 423.164062 C 488.992188 423.855469 488.257812 424.351562 487.289062 424.636719 L 490.34375 429.878906 L 486.703125 429.878906 Z M 483.179688 422.59375 L 485.175781 422.59375 C 485.765625 422.59375 486.210938 422.453125 486.503906 422.160156 C 486.796875 421.867188 486.945312 421.460938 486.945312 420.9375 C 486.945312 420.414062 486.796875 420.039062 486.503906 419.753906 C 486.210938 419.460938 485.761719 419.316406 485.175781 419.316406 L 483.179688 419.316406 Z M 483.179688 422.59375 " fill-opacity="1" fill-rule="nonzero"/><path fill="#32b1e5" d="M 506.585938 419.21875 L 506.585938 421.898438 L 510.90625 421.898438 L 510.90625 424.386719 L 506.585938 424.386719 L 506.585938 427.289062 L 511.46875 427.289062 L 511.46875 429.871094 L 503.363281 429.871094 L 503.363281 416.640625 L 511.46875 416.640625 L 511.46875 419.21875 Z M 506.585938 419.21875 " fill-opacity="1" fill-rule="nonzero"/><path fill="#32b1e5" d="M 570.683594 416.640625 L 570.683594 429.871094 L 567.457031 429.871094 L 567.457031 421.933594 L 564.496094 429.871094 L 561.890625 429.871094 L 558.914062 421.914062 L 558.914062 429.871094 L 555.691406 429.871094 L 555.691406 416.640625 L 559.5 416.640625 L 563.210938 425.796875 L 566.886719 416.640625 Z M 570.683594 416.640625 " fill-opacity="1" fill-rule="nonzero"/><path fill="#32b1e5" d="M 592.449219 427.539062 L 587.511719 427.539062 L 586.71875 429.878906 L 583.34375 429.878906 L 588.128906 416.648438 L 591.863281 416.648438 L 596.648438 429.878906 L 593.234375 429.878906 L 592.441406 427.539062 Z M 591.613281 425.046875 L 589.972656 420.203125 L 588.351562 425.046875 Z M 591.613281 425.046875 " fill-opacity="1" fill-rule="nonzero"/><path fill="#32b1e5" d="M 619.199219 416.640625 L 619.199219 419.21875 L 615.691406 419.21875 L 615.691406 429.871094 L 612.464844 429.871094 L 612.464844 419.21875 L 608.960938 419.21875 L 608.960938 416.640625 Z M 619.199219 416.640625 " fill-opacity="1" fill-rule="nonzero"/><path fill="#32b1e5" d="M 632.242188 419.738281 C 632.804688 418.710938 633.601562 417.914062 634.605469 417.34375 C 635.617188 416.773438 636.765625 416.488281 638.046875 416.488281 C 639.613281 416.488281 640.964844 416.902344 642.082031 417.734375 C 643.199219 418.566406 643.949219 419.691406 644.324219 421.125 L 640.785156 421.125 C 640.523438 420.570312 640.148438 420.148438 639.660156 419.863281 C 639.171875 419.574219 638.625 419.429688 638.011719 419.429688 C 637.019531 419.429688 636.210938 419.773438 635.59375 420.464844 C 634.980469 421.15625 634.671875 422.078125 634.671875 423.234375 C 634.671875 424.386719 634.980469 425.308594 635.59375 426.007812 C 636.210938 426.699219 637.011719 427.042969 638.011719 427.042969 C 638.625 427.042969 639.171875 426.898438 639.660156 426.609375 C 640.140625 426.316406 640.515625 425.894531 640.785156 425.347656 L 644.324219 425.347656 C 643.949219 426.78125 643.199219 427.90625 642.082031 428.730469 C 640.964844 429.554688 639.621094 429.96875 638.046875 429.96875 C 636.765625 429.96875 635.617188 429.683594 634.605469 429.113281 C 633.59375 428.542969 632.804688 427.746094 632.242188 426.726562 C 631.679688 425.707031 631.394531 424.546875 631.394531 423.238281 C 631.394531 421.933594 631.679688 420.765625 632.242188 419.746094 Z M 632.242188 419.738281 " fill-opacity="1" fill-rule="nonzero"/><path fill="#32b1e5" d="M 668.886719 416.640625 L 668.886719 429.871094 L 665.664062 429.871094 L 665.664062 424.425781 L 660.644531 424.425781 L 660.644531 429.871094 L 657.421875 429.871094 L 657.421875 416.640625 L 660.644531 416.640625 L 660.644531 421.824219 L 665.664062 421.824219 L 665.664062 416.640625 Z M 668.886719 416.640625 " fill-opacity="1" fill-rule="nonzero"/><path fill="#063854" d="M 339.367188 423.308594 C 339.367188 423.757812 339.28125 424.191406 339.109375 424.609375 C 338.933594 425.027344 338.6875 425.394531 338.371094 425.714844 C 338.050781 426.035156 337.683594 426.28125 337.265625 426.453125 C 336.847656 426.625 336.414062 426.710938 335.960938 426.710938 C 335.511719 426.710938 335.078125 426.625 334.660156 426.453125 C 334.242188 426.28125 333.875 426.035156 333.554688 425.714844 C 333.234375 425.394531 332.988281 425.027344 332.816406 424.609375 C 332.644531 424.191406 332.558594 423.757812 332.558594 423.308594 C 332.558594 422.855469 332.644531 422.421875 332.816406 422.003906 C 332.988281 421.585938 333.234375 421.21875 333.554688 420.898438 C 333.875 420.582031 334.242188 420.335938 334.660156 420.160156 C 335.078125 419.988281 335.511719 419.902344 335.960938 419.902344 C 336.414062 419.902344 336.847656 419.988281 337.265625 420.160156 C 337.683594 420.335938 338.050781 420.582031 338.371094 420.898438 C 338.6875 421.21875 338.933594 421.585938 339.109375 422.003906 C 339.28125 422.421875 339.367188 422.855469 339.367188 423.308594 Z M 339.367188 423.308594 " fill-opacity="1" fill-rule="nonzero"/><path fill="#063854" d="M 536.984375 423.308594 C 536.984375 423.757812 536.898438 424.191406 536.726562 424.609375 C 536.554688 425.027344 536.308594 425.394531 535.988281 425.714844 C 535.667969 426.035156 535.300781 426.28125 534.882812 426.453125 C 534.464844 426.625 534.03125 426.710938 533.578125 426.710938 C 533.128906 426.710938 532.695312 426.625 532.277344 426.453125 C 531.859375 426.28125 531.492188 426.035156 531.171875 425.714844 C 530.851562 425.394531 530.605469 425.027344 530.433594 424.609375 C 530.261719 424.191406 530.175781 423.757812 530.175781 423.308594 C 530.175781 422.855469 530.261719 422.421875 530.433594 422.003906 C 530.605469 421.585938 530.851562 421.21875 531.171875 420.898438 C 531.492188 420.582031 531.859375 420.335938 532.277344 420.160156 C 532.695312 419.988281 533.128906 419.902344 533.578125 419.902344 C 534.03125 419.902344 534.464844 419.988281 534.882812 420.160156 C 535.300781 420.335938 535.667969 420.582031 535.988281 420.898438 C 536.308594 421.21875 536.554688 421.585938 536.726562 422.003906 C 536.898438 422.421875 536.984375 422.855469 536.984375 423.308594 Z M 536.984375 423.308594 " fill-opacity="1" fill-rule="nonzero"/><path fill="#063854" d="M 245.648438 373.941406 C 244.183594 376.582031 241.933594 378.710938 238.90625 380.332031 C 235.875 381.953125 232.109375 382.761719 227.609375 382.761719 L 219.300781 382.761719 L 219.300781 402.523438 L 205.890625 402.523438 L 205.890625 347.484375 L 227.609375 347.484375 C 231.996094 347.484375 235.710938 348.238281 238.746094 349.753906 C 241.777344 351.269531 244.050781 353.363281 245.574219 356.023438 C 247.085938 358.6875 247.84375 361.746094 247.84375 365.199219 C 247.84375 368.386719 247.109375 371.300781 245.648438 373.941406 Z M 232.320312 370.296875 C 233.574219 369.097656 234.203125 367.394531 234.203125 365.199219 C 234.203125 363 233.574219 361.304688 232.320312 360.097656 C 231.066406 358.898438 229.15625 358.289062 226.597656 358.289062 L 219.308594 358.289062 L 219.308594 372.089844 L 226.597656 372.089844 C 229.15625 372.089844 231.066406 371.488281 232.320312 370.289062 Z M 232.320312 370.296875 " fill-opacity="1" fill-rule="nonzero"/><path fill="#063854" d="M 273.816406 360.847656 C 276.140625 359.476562 278.730469 358.792969 281.574219 358.792969 L 281.574219 372.824219 L 277.925781 372.824219 C 274.621094 372.824219 272.136719 373.539062 270.488281 374.953125 C 268.828125 376.378906 268.003906 378.871094 268.003906 382.441406 L 268.003906 402.515625 L 254.746094 402.515625 L 254.746094 359.257812 L 268.003906 359.257812 L 268.003906 366.464844 C 269.558594 364.085938 271.492188 362.210938 273.816406 360.847656 Z M 273.816406 360.847656 " fill-opacity="1" fill-rule="nonzero"/><path fill="#063854" d="M 328.476562 384.066406 L 298.476562 384.066406 C 298.679688 386.753906 299.550781 388.808594 301.074219 390.234375 C 302.59375 391.65625 304.46875 392.363281 306.691406 392.363281 C 309.996094 392.363281 312.300781 390.96875 313.589844 388.175781 L 327.699219 388.175781 C 326.96875 391.019531 325.664062 393.578125 323.78125 395.851562 C 321.890625 398.121094 319.53125 399.90625 316.6875 401.199219 C 313.84375 402.488281 310.664062 403.132812 307.15625 403.132812 C 302.917969 403.132812 299.144531 402.234375 295.835938 400.417969 C 292.53125 398.609375 289.941406 396.023438 288.082031 392.664062 C 286.222656 389.300781 285.292969 385.371094 285.292969 380.878906 C 285.292969 376.386719 286.207031 372.457031 288.046875 369.097656 C 289.882812 365.738281 292.449219 363.15625 295.761719 361.34375 C 299.070312 359.535156 302.863281 358.628906 307.164062 358.628906 C 311.460938 358.628906 315.066406 359.503906 318.328125 361.261719 C 321.585938 363.015625 324.136719 365.527344 325.964844 368.78125 C 327.800781 372.039062 328.71875 375.839844 328.71875 380.183594 C 328.71875 381.421875 328.640625 382.71875 328.484375 384.058594 Z M 315.140625 376.703125 C 315.140625 374.429688 314.371094 372.621094 312.816406 371.273438 C 311.265625 369.929688 309.328125 369.253906 307.003906 369.253906 C 304.679688 369.253906 302.910156 369.898438 301.386719 371.191406 C 299.863281 372.480469 298.921875 374.316406 298.558594 376.695312 L 315.148438 376.695312 Z M 315.140625 376.703125 " fill-opacity="1" fill-rule="nonzero"/><path fill="#063854" d="M 343.207031 401.203125 C 340.261719 399.914062 337.933594 398.144531 336.234375 395.894531 C 334.53125 393.644531 333.570312 391.125 333.367188 388.335938 L 346.46875 388.335938 C 346.628906 389.835938 347.324219 391.050781 348.5625 391.980469 C 349.800781 392.910156 351.328125 393.375 353.136719 393.375 C 354.796875 393.375 356.070312 393.050781 356.976562 392.40625 C 357.886719 391.761719 358.335938 390.921875 358.335938 389.886719 C 358.335938 388.648438 357.691406 387.726562 356.398438 387.136719 C 355.109375 386.542969 353.015625 385.882812 350.121094 385.15625 C 347.023438 384.433594 344.4375 383.671875 342.367188 382.867188 C 340.296875 382.066406 338.519531 380.796875 337.019531 379.066406 C 335.519531 377.332031 334.769531 374.992188 334.769531 372.046875 C 334.769531 369.5625 335.453125 367.304688 336.824219 365.265625 C 338.191406 363.226562 340.207031 361.605469 342.871094 360.421875 C 345.53125 359.234375 348.699219 358.636719 352.363281 358.636719 C 357.796875 358.636719 362.070312 359.976562 365.199219 362.671875 C 368.324219 365.355469 370.117188 368.925781 370.582031 373.371094 L 358.335938 373.371094 C 358.125 371.871094 357.464844 370.6875 356.355469 369.800781 C 355.246094 368.925781 353.78125 368.484375 351.976562 368.484375 C 350.421875 368.484375 349.238281 368.78125 348.40625 369.375 C 347.578125 369.96875 347.167969 370.785156 347.167969 371.820312 C 347.167969 373.058594 347.828125 373.988281 349.148438 374.609375 C 350.46875 375.234375 352.523438 375.847656 355.3125 376.46875 C 358.515625 377.296875 361.125 378.113281 363.140625 378.914062 C 365.160156 379.71875 366.929688 381.007812 368.453125 382.792969 C 369.976562 384.578125 370.761719 386.96875 370.816406 389.960938 C 370.816406 392.496094 370.101562 394.753906 368.683594 396.75 C 367.261719 398.738281 365.21875 400.304688 362.558594 401.4375 C 359.894531 402.578125 356.804688 403.140625 353.296875 403.140625 C 349.523438 403.140625 346.164062 402.496094 343.214844 401.203125 Z M 343.207031 401.203125 " fill-opacity="1" fill-rule="nonzero"/><path fill="#063854" d="M 386.46875 401.203125 C 383.519531 399.914062 381.195312 398.144531 379.492188 395.894531 C 377.789062 393.644531 376.828125 391.125 376.628906 388.335938 L 389.730469 388.335938 C 389.886719 389.835938 390.585938 391.050781 391.824219 391.980469 C 393.058594 392.910156 394.589844 393.375 396.398438 393.375 C 398.054688 393.375 399.328125 393.050781 400.238281 392.40625 C 401.144531 391.761719 401.59375 390.921875 401.59375 389.886719 C 401.59375 388.648438 400.949219 387.726562 399.660156 387.136719 C 398.371094 386.542969 396.277344 385.882812 393.382812 385.15625 C 390.285156 384.433594 387.699219 383.671875 385.628906 382.867188 C 383.558594 382.066406 381.78125 380.796875 380.28125 379.066406 C 378.78125 377.332031 378.03125 374.992188 378.03125 372.046875 C 378.03125 369.5625 378.710938 367.304688 380.085938 365.265625 C 381.449219 363.226562 383.46875 361.605469 386.128906 360.421875 C 388.792969 359.234375 391.957031 358.636719 395.625 358.636719 C 401.054688 358.636719 405.328125 359.976562 408.457031 362.671875 C 411.585938 365.355469 413.378906 368.925781 413.84375 373.371094 L 401.59375 373.371094 C 401.386719 371.871094 400.726562 370.6875 399.613281 369.800781 C 398.503906 368.925781 397.042969 368.484375 395.234375 368.484375 C 393.683594 368.484375 392.496094 368.78125 391.664062 369.375 C 390.839844 369.96875 390.425781 370.785156 390.425781 371.820312 C 390.425781 373.058594 391.085938 373.988281 392.40625 374.609375 C 393.726562 375.234375 395.78125 375.847656 398.570312 376.46875 C 401.773438 377.296875 404.382812 378.113281 406.402344 378.914062 C 408.417969 379.71875 410.191406 381.007812 411.710938 382.792969 C 413.234375 384.578125 414.023438 386.96875 414.074219 389.960938 C 414.074219 392.496094 413.363281 394.753906 411.945312 396.75 C 410.519531 398.738281 408.480469 400.304688 405.816406 401.4375 C 403.15625 402.578125 400.066406 403.140625 396.554688 403.140625 C 392.78125 403.140625 389.421875 402.496094 386.476562 401.203125 Z M 386.46875 401.203125 " fill-opacity="1" fill-rule="nonzero"/><path fill="#063854" d="M 464.925781 359.265625 L 464.925781 402.523438 L 451.664062 402.523438 L 451.664062 396.628906 C 450.324219 398.542969 448.5 400.078125 446.199219 401.242188 C 443.894531 402.40625 441.351562 402.988281 438.5625 402.988281 C 435.253906 402.988281 432.328125 402.253906 429.800781 400.777344 C 427.265625 399.308594 425.300781 397.171875 423.90625 394.378906 C 422.511719 391.589844 421.816406 388.304688 421.816406 384.53125 L 421.816406 359.257812 L 434.992188 359.257812 L 434.992188 382.746094 C 434.992188 385.640625 435.742188 387.890625 437.242188 389.488281 C 438.742188 391.09375 440.761719 391.890625 443.289062 391.890625 C 445.816406 391.890625 447.914062 391.085938 449.414062 389.488281 C 450.914062 387.886719 451.664062 385.640625 451.664062 382.746094 L 451.664062 359.257812 L 464.925781 359.257812 Z M 464.925781 359.265625 " fill-opacity="1" fill-rule="nonzero"/><path fill="#063854" d="M 493.53125 360.847656 C 495.855469 359.476562 498.441406 358.792969 501.285156 358.792969 L 501.285156 372.824219 L 497.640625 372.824219 C 494.332031 372.824219 491.851562 373.539062 490.199219 374.953125 C 488.542969 376.378906 487.71875 378.871094 487.71875 382.441406 L 487.71875 402.515625 L 474.457031 402.515625 L 474.457031 359.257812 L 487.71875 359.257812 L 487.71875 366.464844 C 489.269531 364.085938 491.203125 362.210938 493.53125 360.847656 Z M 493.53125 360.847656 " fill-opacity="1" fill-rule="nonzero"/><path fill="#063854" d="M 548.191406 384.066406 L 518.183594 384.066406 C 518.386719 386.753906 519.253906 388.808594 520.777344 390.234375 C 522.300781 391.65625 524.175781 392.363281 526.394531 392.363281 C 529.703125 392.363281 532.003906 390.96875 533.296875 388.175781 L 547.402344 388.175781 C 546.675781 391.019531 545.371094 393.578125 543.488281 395.851562 C 541.597656 398.121094 539.234375 399.90625 536.390625 401.199219 C 533.550781 402.488281 530.371094 403.132812 526.859375 403.132812 C 522.621094 403.132812 518.851562 402.234375 515.542969 400.417969 C 512.234375 398.609375 509.648438 396.023438 507.789062 392.664062 C 505.925781 389.300781 504.996094 385.371094 504.996094 380.878906 C 504.996094 376.386719 505.914062 372.457031 507.75 369.097656 C 509.585938 365.738281 512.160156 363.15625 515.46875 361.34375 C 518.773438 359.535156 522.570312 358.628906 526.867188 358.628906 C 531.164062 358.628906 534.773438 359.503906 538.035156 361.261719 C 541.289062 363.015625 543.839844 365.527344 545.671875 368.78125 C 547.5 372.039062 548.421875 375.839844 548.421875 380.183594 C 548.421875 381.421875 548.347656 382.71875 548.191406 384.058594 Z M 534.855469 376.703125 C 534.855469 374.429688 534.082031 372.621094 532.53125 371.273438 C 530.976562 369.929688 529.042969 369.253906 526.71875 369.253906 C 524.390625 369.253906 522.621094 369.898438 521.101562 371.191406 C 519.578125 372.480469 518.632812 374.316406 518.273438 376.695312 L 534.863281 376.695312 Z M 534.855469 376.703125 " fill-opacity="1" fill-rule="nonzero"/><path fill="#32b1e5" d="M 555.855469 360.90625 C 558.328125 356.691406 561.683594 353.398438 565.925781 351.03125 C 570.171875 348.660156 574.816406 347.476562 579.863281 347.476562 C 585.636719 347.476562 590.78125 348.890625 595.28125 351.726562 C 599.78125 354.5625 603.050781 358.589844 605.085938 363.796875 L 594.390625 363.796875 C 592.988281 360.929688 591.03125 358.800781 588.53125 357.390625 C 586.035156 355.980469 583.148438 355.28125 579.863281 355.28125 C 576.269531 355.28125 573.066406 356.09375 570.253906 357.703125 C 567.441406 359.316406 565.246094 361.636719 563.65625 364.65625 C 562.066406 367.679688 561.269531 371.191406 561.269531 375.203125 C 561.269531 379.214844 562.066406 382.726562 563.65625 385.746094 C 565.246094 388.769531 567.441406 391.09375 570.253906 392.738281 C 573.066406 394.378906 576.269531 395.199219 579.863281 395.199219 C 583.140625 395.199219 586.035156 394.492188 588.53125 393.089844 C 591.03125 391.6875 592.980469 389.550781 594.390625 386.683594 L 605.085938 386.683594 C 603.050781 391.890625 599.789062 395.902344 595.28125 398.707031 C 590.78125 401.519531 585.636719 402.921875 579.863281 402.921875 C 574.761719 402.921875 570.105469 401.738281 565.882812 399.367188 C 561.667969 396.996094 558.324219 393.707031 555.847656 389.488281 C 553.371094 385.273438 552.136719 380.511719 552.136719 375.203125 C 552.136719 369.894531 553.371094 365.128906 555.847656 360.914062 Z M 555.855469 360.90625 " fill-opacity="1" fill-rule="nonzero"/><path fill="#32b1e5" d="M 611.371094 370.933594 C 613.078125 367.761719 615.40625 365.300781 618.351562 363.539062 C 621.300781 361.785156 624.554688 360.898438 628.125 360.898438 C 631.34375 360.898438 634.15625 361.53125 636.5625 362.796875 C 638.960938 364.058594 640.882812 365.632812 642.324219 367.515625 L 642.324219 361.566406 L 650.871094 361.566406 L 650.871094 402.515625 L 642.324219 402.515625 L 642.324219 396.421875 C 640.882812 398.355469 638.925781 399.960938 636.449219 401.25 C 633.976562 402.539062 631.148438 403.183594 627.976562 403.183594 C 624.457031 403.183594 621.238281 402.277344 618.316406 400.46875 C 615.390625 398.664062 613.074219 396.136719 611.371094 392.886719 C 609.660156 389.640625 608.804688 385.964844 608.804688 381.847656 C 608.804688 377.730469 609.660156 374.09375 611.371094 370.921875 Z M 640.582031 374.65625 C 639.421875 372.578125 637.898438 370.988281 636.015625 369.898438 C 634.132812 368.8125 632.101562 368.265625 629.917969 368.265625 C 627.734375 368.265625 625.703125 368.796875 623.820312 369.863281 C 621.9375 370.925781 620.414062 372.488281 619.253906 374.542969 C 618.089844 376.597656 617.503906 379.042969 617.503906 381.863281 C 617.503906 384.683594 618.089844 387.164062 619.253906 389.296875 C 620.414062 391.425781 621.953125 393.046875 623.859375 394.164062 C 625.761719 395.28125 627.789062 395.835938 629.917969 395.835938 C 632.046875 395.835938 634.125 395.289062 636.015625 394.199219 C 637.898438 393.113281 639.421875 391.515625 640.582031 389.40625 C 641.746094 387.300781 642.328125 384.839844 642.328125 382.011719 C 642.328125 379.183594 641.746094 376.734375 640.582031 374.65625 Z M 640.582031 374.65625 " fill-opacity="1" fill-rule="nonzero"/><path fill="#32b1e5" d="M 660.40625 347.476562 L 668.886719 347.476562 L 668.886719 402.515625 L 660.40625 402.515625 Z M 660.40625 347.476562 " fill-opacity="1" fill-rule="nonzero"/></svg>